<svg width="318" height="100" viewBox="0 0 318 100" fill="none" xmlns="http://www.w3.org/2000/svg">
<path fill-rule="evenodd" clip-rule="evenodd" d="M49.6647 34.845C49.7216 33.3343 49.7796 31.7973 49.6169 29.9142C49.3634 26.9802 49.1722 24.8622 48.3915 22.4598C46.802 17.5668 44.0408 13.2105 40.7375 9.32815C39.0576 7.35555 37.1942 5.55709 35.1332 3.99842C34.0885 3.21052 33.0354 2.42834 31.9287 1.73464L31.7562 1.62634C30.8876 1.08018 29.9181 0.47054 28.8964 0.350112C26.2677 0.0421922 27.1603 3.19699 27.6703 4.99954C27.7513 5.28586 27.8227 5.53816 27.8687 5.73694C28.456 8.2662 28.4955 10.6898 28.2301 13.2591C27.7106 18.2805 25.5169 22.8537 22.3971 26.7418C20.4308 29.189 18.1558 31.3357 15.8811 33.482C14.4063 34.8736 12.9317 36.265 11.5414 37.7382C8.09693 41.3865 5.18325 45.5458 3.26338 50.2218C-0.765517 60.0334 -0.195204 71.1981 4.88115 80.5044C9.66388 89.2712 18.676 95.9027 28.1793 98.4434C33.3347 99.8194 39.0887 100.019 44.3344 99.1399C49.2329 98.3178 53.9112 96.4394 58.0841 93.7189C66.7319 88.0808 72.6807 78.9001 74.7079 68.7202C76.7858 58.272 74.4735 47.1016 69.7924 37.6782C67.4914 33.0479 64.7048 28.5374 61.1813 24.7578C61.0986 24.6691 61.0044 24.566 60.9003 24.452C59.7173 23.1563 57.2475 20.4513 55.6983 21.5035C54.9332 22.023 54.7299 22.691 54.8457 23.5874C54.9511 24.4085 55.1008 25.2258 55.2503 26.0425C55.3571 26.6256 55.4638 27.2085 55.5544 27.7924C55.9609 30.3959 56.2545 33.0022 56.0061 35.6399C55.8226 37.584 55.3708 40.5615 53.1432 41.1267C50.8902 41.6976 49.6705 40.0048 49.6169 37.8923C49.59 36.8268 49.6271 35.8416 49.6647 34.845ZM52.0027 67.8498C54.8346 67.8498 57.1304 65.554 57.1304 62.7221C57.1304 59.8901 54.8346 57.5943 52.0027 57.5943C49.1707 57.5943 46.8749 59.8901 46.8749 62.7221C46.8749 65.554 49.1707 67.8498 52.0027 67.8498ZM29.1941 62.7221C29.1941 65.554 26.8983 67.8498 24.0664 67.8498C21.2344 67.8498 18.9386 65.554 18.9386 62.7221C18.9386 59.8901 21.2344 57.5943 24.0664 57.5943C26.8983 57.5943 29.1941 59.8901 29.1941 62.7221ZM44.7177 72.3322C43.6315 74.851 40.8696 76.2858 38.2741 76.4228H38.2713C36.0487 76.5717 33.7378 75.5304 32.3286 73.7775C32.2273 73.6512 32.1308 73.5212 32.0393 73.3877C31.4186 72.4834 30.719 70.8832 31.7007 69.9932C32.8823 68.9201 33.8412 69.8581 34.71 70.708C34.7996 70.7957 34.8883 70.8824 34.9761 70.9659C36.618 72.5291 39.1994 72.6004 40.9062 71.0885C41.0747 70.9389 41.2436 70.7641 41.4168 70.5848C42.0785 69.8997 42.803 69.1497 43.8092 69.4911C44.2101 69.6274 44.4948 69.8494 44.6828 70.1228C45.0979 70.7305 45.038 71.5921 44.7177 72.3322Z" fill="black"/>
<path d="M246.963 61.4643L255.65 39.8941H284.735L288.501 48.5319C289.896 51.7307 290.594 53.3302 291.571 53.8192C292.419 54.2436 293.418 54.2436 294.267 53.8192C295.243 53.3303 295.941 51.7309 297.336 48.5319L301.103 39.8941H316.597L302.603 58.6007C302.208 59.1289 302.011 59.3938 301.937 59.6832C301.871 59.9383 301.875 60.206 301.946 60.4597C302.026 60.7474 302.228 61.008 302.634 61.5275L317.391 80.4165H300.547L297.432 72.1096C296.035 68.3858 295.337 66.524 294.323 65.9898C293.444 65.527 292.393 65.527 291.515 65.9898C290.501 66.5241 289.802 68.386 288.406 72.1096L285.291 80.4165H268.446L284.338 60.0759L270.249 41.2398L241.825 99.4864H226.57L239.378 76.8837L222.279 39.8941H238.011L246.963 61.4643Z" fill="black"/>
<path d="M187.948 39.8941H199.389V50.6203H187.948V61.9834C187.948 63.9431 188.319 65.5055 189.06 66.6708C189.855 67.7831 191.179 68.34 193.033 68.3401C194.621 68.3401 195.919 68.0753 196.926 67.5459C197.985 66.9632 199.018 66.3797 200.025 65.7971V77.2382C199.177 78.4035 197.747 79.4366 195.734 80.3371C193.722 81.1846 191.391 81.6093 188.742 81.6093C186.2 81.6093 183.816 81.0259 181.592 79.8606C179.42 78.6952 177.645 77.0273 176.267 74.8556C174.943 72.6838 174.282 70.0608 174.282 66.9884V50.6203H168.561V42.2782C171.156 41.5896 173.249 40.1596 174.838 37.988C176.48 35.8162 177.883 33.008 179.049 29.5649H187.948V39.8941Z" fill="black"/>
<path d="M114.921 67.3061H138.042V80.4165H100.063V27.1808H114.921V67.3061Z" fill="black"/>
<path d="M163.392 80.4165H149.726V42.9636C151.56 44.1045 153.931 44.7946 156.522 44.7947C159.149 44.7947 161.549 44.0851 163.392 42.9165V80.4165Z" fill="black"/>
<path d="M219.574 80.4165H205.908V23.2083H219.574V80.4165Z" fill="black"/>
<path d="M163.356 33.6479C163.356 37.0367 160.297 39.7838 156.523 39.7838C152.75 39.7838 149.691 37.0367 149.691 33.6479C149.691 30.2592 152.75 27.5121 156.523 27.5121C160.297 27.5121 163.356 30.2592 163.356 33.6479Z" fill="black"/>
</svg>
