<?xml version="1.0" encoding="utf-8"?>
<!-- Generator: Adobe Illustrator 27.9.0, SVG Export Plug-In . SVG Version: 6.00 Build 0)  -->
<svg version="1.1" id="Livello_1" xmlns="http://www.w3.org/2000/svg" xmlns:xlink="http://www.w3.org/1999/xlink" x="0px" y="0px"
	 viewBox="0 0 595.28 841.89" style="enable-background:new 0 0 595.28 841.89;" xml:space="preserve">
<style type="text/css">
	.st0{fill:#FFFFFF;}
</style>
<g>
	<path class="st0" d="M278.66,769.23l-31.37-7.3c-50.32-11.72-95.96-40.47-128.51-80.96c-33.05-41.12-51.25-92.87-51.25-145.73
		v-13.89h13.89c28.46,0,53.53-8.94,76.63-27.31c33.12-26.29,60.92-71.54,82.65-134.52c4.74-13.7,9.28-28.6,13.49-44.3
		c28.71-107.29,32.16-217,32.2-218.09l0.71-24.47l20.64,13.15c1.78,1.14,44.22,28.47,92.17,84.44
		c44.13,51.52,101.4,138.15,123.55,258.27l4.29,23.26l-22.4-7.58c-21.06-7.13-43.15-10.74-65.66-10.74
		c-113.02,0-204.97,91.95-204.97,204.97c0,36.26,9.59,71.87,27.72,102.97L278.66,769.23z M95.72,548.47
		c2.64,42.27,17.97,81.82,44.71,115.09c22.08,27.47,50.99,48.8,83.35,61.87c-11.07-27.5-16.84-57.06-16.84-87
		c0-128.34,104.41-232.75,232.75-232.75c17.59,0,34.96,1.95,51.89,5.81c-36.34-158.52-135.99-253.05-178.8-287.43
		c-2.71,39.67-10.44,118.7-31.75,198.36c-4.39,16.34-9.12,31.87-14.07,46.17c-23.48,68.05-54.31,117.58-91.63,147.2
		C151.41,534.81,124.68,545.78,95.72,548.47z"/>
</g>
</svg>
